<?xml version="1.0" encoding="utf-8"?>
<!-- Generator: Adobe Illustrator 26.3.1, SVG Export Plug-In . SVG Version: 6.00 Build 0)  -->
<svg version="1.1" id="Layer_1" xmlns="http://www.w3.org/2000/svg" xmlns:xlink="http://www.w3.org/1999/xlink" x="0px" y="0px"
	 viewBox="0 0 500 500" style="enable-background:new 0 0 500 500;" xml:space="preserve">
<style type="text/css">
	.st0{fill:#8C9194;}
</style>
<path class="st0" d="M501.32,65.82c-0.02-13.07-2.9-25.63-10.15-36.82C478.01,8.7,458.51,0.2,435.12,0.12
	C373.59-0.1,312.05,0.05,250.51,0.05c-62.24,0-124.47-0.14-186.71,0.05C25.39,0.21-1.45,27.36-1.45,65.5c0,90.9,0.01,181.8,0,272.7
	c-0.01,42.92,24.57,67.71,67.49,67.86c26.22,0.09,52.45,0.28,78.67-0.14c7.92-0.13,10.93,1.65,10.67,10.35
	c-0.67,22.71-0.23,45.44-0.21,68.17c0,5.88,1.38,11.59,6.88,14.35s10.45,0.39,15.33-3.32c36.41-27.67,73.11-54.98,109.48-82.7
	c6.18-4.71,12.33-6.88,20.12-6.83c42.3,0.28,84.61,0.15,126.92,0.13c40.72-0.02,67.36-25.98,67.45-66.51
	C501.53,248.32,501.46,157.07,501.32,65.82z M471.68,340.92c-0.04,25.96-11.97,37.35-38.24,37.37
	c-43.71,0.04-87.42,0.21-131.12-0.13c-10.7-0.08-19.6,2.84-28.05,9.33c-26.04,19.99-52.38,39.61-78.69,59.24
	c-2.02,1.51-3.79,5.09-6.96,3.27c-2.9-1.67-1.41-5.11-1.43-7.75c-0.11-15.38,0.14-30.77-0.09-46.15
	c-0.19-12.85-5.13-17.7-17.99-17.75c-33.92-0.12-67.84-0.01-101.75-0.05c-26.25-0.03-37.97-11.43-38-37.52
	c-0.1-90.56-0.1-181.12-0.01-271.68c0.03-26.76,11.08-38.04,38.15-38.88c14.32-0.44,28.67-0.1,43.01-0.1c46.86,0,93.71,0,140.57,0
	c58.39,0,116.79,0,175.18,0.01c3.49,0,7.01-0.09,10.48,0.24c24.95,2.34,34.89,12.74,34.93,37.83
	C471.84,159.1,471.83,250.01,471.68,340.92z"/>
</svg>
