<?xml version="1.0" encoding="utf-8"?>
<!-- Generator: Adobe Illustrator 26.3.1, SVG Export Plug-In . SVG Version: 6.00 Build 0)  -->
<svg version="1.1" id="Layer_1" xmlns="http://www.w3.org/2000/svg" xmlns:xlink="http://www.w3.org/1999/xlink" x="0px" y="0px"
	 viewBox="0 0 500 500" style="enable-background:new 0 0 500 500;" xml:space="preserve">
<style type="text/css">
	.st0{fill:#8C9194;}
</style>
<g>
	<path class="st0" d="M475.72,287.19c-30.75-70.02-81.3-122.72-144.16-164.51c-6.48-4.31-6.47-7.31-2.35-13.05
		c16.42-22.83,32.31-46.03,48.75-68.84c6.38-8.84,9.75-18.05,4.5-28.08c-5-9.54-14.31-12.67-24.62-12.67
		C285.88,0,213.92-0.02,141.96,0.06c-10.29,0.01-19.5,3.25-24.45,12.92c-4.98,9.74-1.79,18.72,4.2,27.26
		c16.16,23.01,31.8,46.4,48.27,69.19c4.8,6.64,3.45,9.28-2.73,13.66c-28.65,20.28-56.18,41.9-79.9,68.11
		C32.63,251.66,0.73,321.37,0.21,403.88c-0.35,55.98,39.8,96.03,95.67,96.06c51.1,0.02,102.21,0,153.31,0.01
		c52.49,0,104.99,0.14,157.48-0.04c49.99-0.17,90.88-37.82,92.89-87.03C501.33,369.35,493.32,327.28,475.72,287.19z M157.85,37.78
		c-1.32-1.93-3.38-4.62-2.86-6.25c1.01-3.16,4.65-2.15,7.33-2.16c29.54-0.03,59.08-0.02,88.62-0.01c28.5,0.01,56.99-0.02,85.49,0.06
		c2.96,0.01,6.88-1.51,8.52,1.94c1.32,2.78-1.81,4.96-3.29,7.14c-14.46,21.23-29.1,42.33-43.51,63.59
		c-3.03,4.47-6.57,6.32-12.08,6.26c-23.98-0.27-47.96-0.25-71.93-0.01c-5.44,0.05-9.09-1.6-12.16-6.13
		C187.38,80.66,172.53,59.28,157.85,37.78z M406.65,469.28c-52.13,0.07-104.26,0.02-156.38,0.02c-50.04,0-100.16-1.66-150.11,0.55
		c-37.11,1.64-73.87-26.9-69.81-77.66c5.84-73.13,34.71-135.07,85.31-187.27c22.99-23.72,48.62-44.48,76.4-62.5
		c3.79-2.46,7.64-2.86,11.84-2.86c30.93,0.03,61.86,0.03,92.79,0.01c3.84,0,7.44,0.22,10.89,2.51
		c57.32,38.06,105.68,84.35,136.12,147.26c18.05,37.29,25.44,77.01,25.69,118C469.62,441.65,440.93,469.23,406.65,469.28z"/>
	<g>
		<path class="st0" d="M212.49,360.34l-22.03-39.99h-7.38v32.8c0,8.23-6.67,14.9-14.9,14.9h-0.97c-8.23,0-14.9-6.67-14.9-14.9V256.6
			c0-8.23,6.67-14.9,14.9-14.9h36.76c9.96,0,18.45,1.74,25.47,5.22s12.27,8.25,15.75,14.31s5.22,12.81,5.22,20.25
			c0,8.4-2.37,15.9-7.11,22.5s-11.73,11.28-20.97,14.04l16.1,27.63c5.79,9.94-1.38,22.41-12.88,22.41l0,0
			C220.12,368.05,215.12,365.1,212.49,360.34z M183.08,298.57h19.08c5.64,0,9.87-1.38,12.69-4.14s4.23-6.66,4.23-11.7
			c0-4.8-1.41-8.58-4.23-11.34c-2.82-2.76-7.05-4.14-12.69-4.14h-19.08V298.57z"/>
		<path class="st0" d="M312.86,270.49c5.28-2.88,11.46-4.32,18.54-4.32c8.28,0,15.78,2.1,22.5,6.3c6.72,4.2,12.03,10.2,15.93,18
			s5.85,16.86,5.85,27.18s-1.95,19.41-5.85,27.27s-9.21,13.92-15.93,18.18c-6.72,4.26-14.22,6.39-22.5,6.39
			c-6.96,0-13.11-1.44-18.45-4.32c-5.34-2.88-9.51-6.6-12.51-11.16v47.7c0,7.85-6.37,14.22-14.22,14.22h-2.34
			c-7.85,0-14.22-6.37-14.22-14.22V281.83c0-7.85,6.37-14.22,14.22-14.22h2.34c7.85,0,14.22,6.37,14.22,14.22l0,0
			C303.44,277.15,307.58,273.37,312.86,270.49z M337.97,299.56c-4.26-4.38-9.51-6.57-15.75-6.57c-6.12,0-11.31,2.22-15.57,6.66
			s-6.39,10.5-6.39,18.18s2.13,13.74,6.39,18.18s9.45,6.66,15.57,6.66s11.34-2.25,15.66-6.75s6.48-10.59,6.48-18.27
			C344.36,309.97,342.23,303.94,337.97,299.56z"/>
	</g>
</g>
</svg>
