<?xml version="1.0" encoding="utf-8"?>
<!-- Generator: Adobe Illustrator 26.3.1, SVG Export Plug-In . SVG Version: 6.00 Build 0)  -->
<svg version="1.1" id="Layer_1" xmlns="http://www.w3.org/2000/svg" xmlns:xlink="http://www.w3.org/1999/xlink" x="0px" y="0px"
	 viewBox="0 0 500 500" style="enable-background:new 0 0 500 500;" xml:space="preserve">
<style type="text/css">
	.st0{fill:#8C9194;}
</style>
<g>
	<path class="st0" d="M249.97,0C109.2,0.05-0.45,113.15-0.09,252.3C0.26,388.42,112.76,500.03,250.22,500
		c138.56,0,248.42-111.41,249.86-246.94C501.56,113.54,391.06-0.05,249.97,0z M249.61,469.33
		c-122.18-0.01-220.23-98.3-219.06-221.79c1.17-122.8,102.14-218.67,224.08-216.95c117.97,1.66,215.3,100.12,215.21,220.9
		C469.74,371.74,371.07,469.34,249.61,469.33z"/>
	<path class="st0" d="M265.33,172.75c0,19.13,0.38,38.27-0.18,57.38c-0.24,8.22,2.32,13.3,9.32,17.85
		c24.75,16.07,49.08,32.79,73.51,49.33c4.26,2.88,9.27,5.33,10.02,11.27c0.76,6.03,0.7,12.05-5.07,15.93
		c-6.56,4.41-12.99,3.49-19.4-0.81c-27.13-18.16-53.97-36.81-81.69-54.02c-13.01-8.07-18.12-17.25-17.63-32.89
		c1.29-41.34,0.62-82.75,0.65-124.13c0.01-8.71,1.71-16.19,11.87-17.9c11.61-1.95,18.36,3.85,18.52,16.43
		C265.52,131.72,265.33,152.24,265.33,172.75z"/>
</g>
</svg>
