<?xml version="1.0" encoding="utf-8"?>
<!-- Generator: Adobe Illustrator 26.3.1, SVG Export Plug-In . SVG Version: 6.00 Build 0)  -->
<svg version="1.1" id="Layer_1" xmlns="http://www.w3.org/2000/svg" xmlns:xlink="http://www.w3.org/1999/xlink" x="0px" y="0px"
	 viewBox="0 0 500 500" style="enable-background:new 0 0 500 500;" xml:space="preserve">
<style type="text/css">
	.st0{fill:#8C9194;}
</style>
<g>
	<path class="st0" d="M465.01,436.5c-16.94-67.36-60.9-106.25-127.79-120.96c-6.73-1.48-9.93,0.98-12.8,6.88
		c-10.33,21.25-21.18,42.24-31.82,63.31c-3.95-1.72-4.41-4.99-5.37-7.89c-4.38-13.19-8.29-26.56-13.21-39.55
		c-2.87-7.57-2.41-10.46,6.75-10.49c10.89-0.03,16.1-5.99,15.69-15.38c-0.39-8.98-5.51-14.05-15.98-14.18
		c-21.25-0.27-42.5-0.18-63.75,0.24c-9.27,0.18-13.7,5.92-13.52,15.07c0.17,8.71,4.7,13.49,13.39,14.23
		c2.43,0.21,4.87,0.24,7.31,0.3c3.03,0.07,4.83,1.44,3.79,4.54c-5.92,17.74-11.98,35.43-18.1,53.46c-4.12-2.66-5.14-6.03-6.69-9.1
		c-9.44-18.62-19.21-37.07-28.27-55.86c-2.72-5.64-6.26-6.77-11.57-5.6c-3.05,0.67-6.08,1.46-9.14,2.08
		C84.12,331.86,30.39,398.12,30.94,469.27c0.14,18.18,10.51,29.3,28.6,30.59c2.43,0.17,4.87,0.11,7.31,0.11
		c122.29,0,244.58,0,366.88,0c1.74,0,3.49,0.06,5.23-0.03c19.2-0.92,30.2-12.24,30.1-31.42C469,457.73,467.64,446.96,465.01,436.5z
		 M205.79,469.63c-22.65-0.13-45.29-0.05-67.94-0.05c-22.3,0-44.6-0.28-66.89,0.14c-8.31,0.16-10.55-3.5-9.51-10.76
		c7.58-52.93,35.81-89.28,86.32-107.97c5.35-1.98,7.98-1.18,10.56,4.05c17.56,35.54,35.3,71,53.24,106.35
		C215.28,468.72,212.09,469.67,205.79,469.63z M252.43,464.38c-2.1,3.77-4.42,1.41-5.92-1.55c-5.64-11.14-11.38-22.23-17.09-33.34
		c-1.19-2.32-1.12-4.64-0.29-7.06c5.88-17.06,11.74-34.12,17.6-51.18c0.54-1.58,0.48-3.67,2.6-4.07c2.09-0.4,3.06,1.13,3.64,2.85
		c6.14,18.07,12.27,36.14,18.37,54.23c0.22,0.64,0.21,1.36,0.45,3.07C265.64,439.2,259.35,451.96,252.43,464.38z M425.29,469.81
		c-21.2-0.7-42.43-0.22-63.65-0.22c-22.26-0.01-44.53-0.22-66.79,0.1c-8.56,0.12-9.51-2.68-5.91-9.8
		c17.41-34.41,34.61-68.93,51.77-103.46c2.36-4.75,4.27-7.75,10.92-5.73c46.01,13.93,82.52,59.51,85.62,106.77
		C437.9,467.2,435.04,470.13,425.29,469.81z"/>
	<path class="st0" d="M249.51,0c-74.23,0.36-124.5,57.21-124.24,125.57c0.27,69.92,54.56,124.1,124.67,124.16
		c72.43,0.06,125.8-57.9,124.39-124.03C376.61,60.62,326.01-0.37,249.51,0z M249.63,218.99c-52.6-0.02-94.14-41.4-94.18-93.83
		c-0.04-53.46,41.47-94.27,95.82-94.2c52.38,0.07,93.64,42.1,93.08,94.8C343.78,178.54,302.66,219.01,249.63,218.99z"/>
</g>
</svg>
